<?xml version="1.0" encoding="iso-8859-1"?>
<!-- Generator: Adobe Illustrator 19.0.0, SVG Export Plug-In . SVG Version: 6.00 Build 0)  -->
<svg version="1.1" id="Capa_1" xmlns="http://www.w3.org/2000/svg" xmlns:xlink="http://www.w3.org/1999/xlink" x="0px"
	y="0px" viewBox="0 0 496 496" style="enable-background:new 0 0 496 496;" xml:space="preserve" fill="#9a8b9f">
	<g>
		<g>
			<g>
				<path d="M472,0H24C10.768,0,0,10.768,0,24v224c0,22.056,17.944,40,40,40h416c22.056,0,40-17.944,40-40V24
				C496,10.768,485.232,0,472,0z M24,16h448c4.416,0,8,3.592,8,8v200H16V24C16,19.592,19.584,16,24,16z M368,240v32H128v-32H368z
				 M16,248v-8h96v32H40C26.768,272,16,261.232,16,248z M456,272h-72v-32h96v8C480,261.232,469.232,272,456,272z" />
				<path d="M432,48H64v144h368V48z M416,176H80V64h336V176z" />
				<path d="M400,112h-96v48h96V112z M384,144h-64v-16h64V144z" />
				<path d="M352,408c-17.648,0-32,14.352-32,32h16c0-8.824,7.176-16,16-16c8.824,0,16,7.176,16,16v8c0,17.648-14.352,32-32,32
				s-32-14.352-32-32v-56h-16v56c0,26.472,21.528,48,48,48s48-21.528,48-48v-8C384,422.352,369.648,408,352,408z" />
				<rect x="288" y="360" width="16" height="16" />
				<path d="M464,384c-17.648,0-32,14.352-32,32h16c0-8.824,7.176-16,16-16c8.824,0,16,7.176,16,16v8c0,17.648-14.352,32-32,32
				s-32-14.352-32-32V304h-16v120c0,26.472,21.528,48,48,48s48-21.528,48-48v-8C496,398.352,481.648,384,464,384z" />
				<path d="M80,424c0,17.648-14.352,32-32,32s-32-14.352-32-32v-8c0-8.824,7.176-16,16-16s16,7.176,16,16h16
				c0-17.648-14.352-32-32-32S0,398.352,0,416v8c0,26.472,21.528,48,48,48s48-21.528,48-48v-88H80V424z" />
				<rect x="80" y="304" width="16" height="16" />
				<path d="M192,408c0,17.648-14.352,32-32,32s-32-14.352-32-32v-8c0-8.824,7.176-16,16-16c8.824,0,16,7.176,16,16h16
				c0-17.648-14.352-32-32-32s-32,14.352-32,32v8c0,26.472,21.528,48,48,48s48-21.528,48-48v-88h-16V408z" />
			</g>
		</g>
	</g>
</svg>