<svg id="Icons" height="512" viewBox="0 0 74 74" width="512" xmlns="http://www.w3.org/2000/svg" fill="#9a8b9f">
    <path d="m17.72 43.47a1 1 0 0 1 -1-1v-2.91a1 1 0 0 1 2 0v2.91a1 1 0 0 1 -1 1z" />
    <path
        d="m53.24 67.94h-32.48a4.045 4.045 0 0 1 -4.04-4.04v-4.46a1 1 0 0 1 2 0v4.46a2.042 2.042 0 0 0 2.04 2.04h32.48a2.042 2.042 0 0 0 2.04-2.04v-57.86a2.042 2.042 0 0 0 -2.04-2.04h-32.48a2.042 2.042 0 0 0 -2.04 2.04v26.52a1 1 0 0 1 -2 0v-26.52a4.044 4.044 0 0 1 4.04-4.04h32.48a4.044 4.044 0 0 1 4.04 4.04v57.86a4.045 4.045 0 0 1 -4.04 4.04z" />
    <path d="m17.72 53.44a1 1 0 0 1 -1-1v-2.97a1 1 0 0 1 2 0v2.97a1 1 0 0 1 -1 1z" />
    <path d="m56.283 27.343h-38.566a1 1 0 0 1 0-2h38.566a1 1 0 0 1 0 2z" />
    <path
        d="m51.209 72h-5.772a1 1 0 0 1 -1-1v-4.06a1 1 0 0 1 1-1h5.772a1 1 0 0 1 1 1v4.06a1 1 0 0 1 -1 1zm-4.772-2h3.772v-2.06h-3.772z" />
    <path
        d="m28.563 72h-5.772a1 1 0 0 1 -1-1v-4.06a1 1 0 0 1 1-1h5.772a1 1 0 0 1 1 1v4.06a1 1 0 0 1 -1 1zm-4.772-2h3.772v-2.06h-3.772z" />
    <path d="m50 54a1 1 0 0 1 -1-1v-15a1 1 0 0 1 2 0v15a1 1 0 0 1 -1 1z" />
    <path d="m50 18.75a1 1 0 0 1 -1-1v-5.5a1 1 0 0 1 2 0v5.5a1 1 0 0 1 -1 1z" /></svg>